<svg width="28" height="28" viewBox="0 0 28 28" fill="none" xmlns="http://www.w3.org/2000/svg">
<g clip-path="url(#clip0_2634_711)">
<path d="M14.9013 1.78325C14.6013 1.76111 14.3007 1.75002 14 1.75V0C14.3439 0.000167698 14.6878 0.0130097 15.0307 0.0385L14.9013 1.78325ZM18.4082 2.57075C17.8473 2.35426 17.2711 2.17938 16.6845 2.0475L17.0678 0.3395C17.7398 0.49 18.3966 0.6895 19.0382 0.938L18.4082 2.57075ZM20.8057 3.81325C20.5556 3.64637 20.2993 3.48877 20.0375 3.34075L20.9002 1.81825C21.4987 2.15715 22.0713 2.53969 22.6135 2.96275L21.5373 4.3435C21.3 4.15841 21.056 3.98212 20.8057 3.815V3.81325ZM24.0152 6.94575C23.669 6.45399 23.2871 5.9884 22.8725 5.55275L24.1395 4.34525C24.6132 4.84575 25.0489 5.37658 25.4468 5.93775L24.0152 6.94575ZM25.3173 9.31175C25.2025 9.03425 25.0776 8.76107 24.9428 8.49275L26.5055 7.70525C26.8144 8.31971 27.0776 8.9561 27.293 9.60925L25.6305 10.157C25.5365 9.8715 25.432 9.58956 25.3173 9.31175ZM26.2447 13.699C26.2305 13.0976 26.172 12.4981 26.0698 11.9052L27.7935 11.6077C27.9102 12.2844 27.9778 12.9669 27.9965 13.6552L26.2447 13.699ZM26.0155 16.3905C26.0738 16.0942 26.1211 15.7967 26.1572 15.498L27.895 15.7132C27.8107 16.396 27.6761 17.0716 27.4925 17.7345L25.8055 17.2672C25.886 16.9791 25.956 16.6868 26.0155 16.3905ZM24.3495 20.5537C24.6715 20.0451 24.955 19.5154 25.2 18.9647L26.7995 19.6735C26.5195 20.3035 26.1957 20.909 25.8282 21.49L24.3495 20.5537ZM22.6625 22.6625C22.876 22.449 23.0802 22.2285 23.275 22.001L24.6015 23.1437C24.3769 23.4043 24.1429 23.6565 23.8997 23.8997L22.6625 22.6625Z" fill="#FF8C42"/>
<path d="M14.0001 1.75C11.9856 1.75015 10.0023 2.24708 8.22576 3.19679C6.44921 4.1465 4.9343 5.51968 3.8152 7.19469C2.69609 8.86969 2.00734 10.7948 1.80994 12.7996C1.61254 14.8044 1.91258 16.8269 2.68351 18.688C3.45443 20.5491 4.67242 22.1914 6.22962 23.4693C7.78681 24.7473 9.63514 25.6215 11.6109 26.0146C13.5866 26.4076 15.6288 26.3073 17.5565 25.7226C19.4843 25.1379 21.2381 24.0869 22.6626 22.6625L23.8998 23.8997C22.2719 25.5286 20.2673 26.7308 18.0637 27.3997C15.86 28.0687 13.5254 28.1838 11.2667 27.7348C9.00797 27.2859 6.89485 26.2867 5.11456 24.8259C3.33427 23.3651 1.94178 21.4877 1.06048 19.3601C0.179179 17.2324 -0.163728 14.9203 0.0621402 12.6285C0.288009 10.3367 1.07568 8.13592 2.35536 6.22128C3.63505 4.30664 5.36723 2.73719 7.39844 1.652C9.42965 0.566817 11.6972 -0.000610281 14.0001 4.92552e-07V1.75Z" fill="#FF8C42"/>
<path d="M13.125 5.25C13.3571 5.25 13.5796 5.34219 13.7437 5.50628C13.9078 5.67038 14 5.89294 14 6.125V15.2425L19.684 18.4905C19.8796 18.6085 20.0214 18.7984 20.0789 19.0195C20.1364 19.2406 20.1051 19.4755 19.9917 19.6738C19.8784 19.8722 19.6919 20.0184 19.4722 20.0811C19.2525 20.1438 19.017 20.1181 18.816 20.0095L12.691 16.5095C12.5571 16.433 12.4458 16.3225 12.3683 16.1891C12.2909 16.0557 12.25 15.9042 12.25 15.75V6.125C12.25 5.89294 12.3422 5.67038 12.5063 5.50628C12.6704 5.34219 12.8929 5.25 13.125 5.25Z" fill="#FF8C42"/>
</g>
<defs>
<clipPath id="clip0_2634_711">
<rect width="28" height="28" fill="white"/>
</clipPath>
</defs>
</svg>
