<svg width="32" height="32" viewBox="0 0 32 32" fill="none" xmlns="http://www.w3.org/2000/svg">
<g clip-path="url(#clip0_3118_1541)">
<path d="M19.1619 6.25181H26.9253C27.4672 6.25175 28.0031 6.36462 28.4989 6.58323C28.9947 6.80183 29.4394 7.12137 29.8049 7.52145C30.1703 7.92154 30.4483 8.39339 30.6212 8.90691C30.7941 9.42043 30.858 9.96435 30.809 10.504L29.5671 24.1514C29.479 25.1202 29.0321 26.0211 28.3139 26.6773C27.5957 27.3334 26.6582 27.6974 25.6854 27.6978H5.50855C4.53576 27.6974 3.59824 27.3334 2.88004 26.6773C2.16185 26.0211 1.71486 25.1202 1.62682 24.1514L0.384903 10.504C0.30348 9.601 0.539257 8.69788 1.05168 7.94994L0.975643 6.25181C0.975643 5.21766 1.38646 4.22586 2.11771 3.4946C2.84897 2.76335 3.84077 2.35253 4.87492 2.35253H12.034C13.0681 2.35275 14.0597 2.76371 14.7908 3.49502L16.4051 5.10932C17.1362 5.84063 18.1278 6.25159 19.1619 6.25181ZM2.93698 6.48576C3.3555 6.33109 3.80002 6.25311 4.27053 6.25181H14.7908L13.4124 4.87341C13.0468 4.50776 12.551 4.30228 12.034 4.30217H4.87492C4.3642 4.30208 3.87383 4.50239 3.50925 4.86005C3.14467 5.2177 2.93499 5.70413 2.92528 6.21476L2.93698 6.48576Z" fill="#FF8C42"/>
</g>
<defs>
<clipPath id="clip0_3118_1541">
<rect width="31.1942" height="31.1942" fill="white" transform="translate(0.000976562 0.402893)"/>
</clipPath>
</defs>
</svg>
