<svg width="24" height="24" viewBox="0 0 24 24" fill="none" xmlns="http://www.w3.org/2000/svg">
<path d="M12.0977 1.10193C18.1163 1.10213 22.9951 5.98165 22.9951 12.0004C22.9949 18.0189 18.1162 22.8976 12.0977 22.8978C6.07894 22.8978 1.19942 18.019 1.19922 12.0004C1.19922 5.98153 6.07882 1.10193 12.0977 1.10193Z" fill="#A5DCA8"/>
<path d="M12.0977 1.10193C18.1163 1.10213 22.9951 5.98165 22.9951 12.0004C22.9949 18.0189 18.1162 22.8976 12.0977 22.8978C6.07894 22.8978 1.19942 18.019 1.19922 12.0004C1.19922 5.98153 6.07882 1.10193 12.0977 1.10193Z" stroke="white"/>
<path d="M4.69922 12C4.69922 10.1435 5.43672 8.363 6.74947 7.05025C8.06223 5.73749 9.8427 5 11.6992 5C13.5557 5 15.3362 5.73749 16.649 7.05025C17.9617 8.363 18.6992 10.1435 18.6992 12C18.6992 13.8565 17.9617 15.637 16.649 16.9497C15.3362 18.2625 13.5557 19 11.6992 19C9.8427 19 8.06223 18.2625 6.74947 16.9497C5.43672 15.637 4.69922 13.8565 4.69922 12ZM11.2617 5.94237C10.6755 6.12087 10.0936 6.65987 9.61059 7.5655C9.45154 7.86662 9.31468 8.17895 9.20109 8.5H11.2617V5.94237ZM8.27797 8.5C8.42395 8.03526 8.61137 7.58458 8.83797 7.15337C8.99026 6.86788 9.16493 6.5949 9.36034 6.337C8.27635 6.78681 7.34365 7.53733 6.67234 8.5H8.27797ZM7.76872 11.5625C7.79497 10.7951 7.88947 10.0592 8.04172 9.375H6.16397C5.83851 10.0622 5.64386 10.804 5.58997 11.5625H7.76872ZM8.94034 9.375C8.76824 10.0923 8.66916 10.8252 8.64459 11.5625H11.2617V9.375H8.94034ZM12.1367 9.375V11.5625H14.753C14.7287 10.8253 14.6299 10.0924 14.4581 9.375H12.1367ZM8.64547 12.4375C8.66974 13.1747 8.76854 13.9076 8.94034 14.625H11.2617V12.4375H8.64547ZM12.1367 12.4375V14.625H14.4581C14.6217 13.9556 14.7258 13.218 14.7538 12.4375H12.1367ZM9.20109 15.5C9.32243 15.8383 9.45893 16.1498 9.61059 16.4345C10.0936 17.3401 10.6763 17.8782 11.2617 18.0576V15.5H9.20109ZM9.36034 17.663C9.16493 17.4051 8.99026 17.1321 8.83797 16.8466C8.61137 16.4154 8.42395 15.9647 8.27797 15.5H6.67234C7.34257 16.4637 8.27559 17.2145 9.36034 17.663ZM8.04172 14.625C7.88372 13.9058 7.79234 13.1735 7.76872 12.4375H5.58997C5.64422 13.2162 5.84459 13.9539 6.16397 14.625H8.04172ZM14.0381 17.663C15.1228 17.2145 16.0559 16.4637 16.7261 15.5H15.1205C14.9745 15.9647 14.7871 16.4154 14.5605 16.8466C14.4082 17.1321 14.2335 17.4051 14.0381 17.663ZM12.1367 15.5V18.0576C12.723 17.8791 13.3048 17.3401 13.7878 16.4345C13.9395 16.1504 14.076 15.8389 14.1973 15.5H12.1367ZM15.3567 14.625H17.2345C17.5538 13.9539 17.7542 13.2162 17.8085 12.4375H15.6297C15.6061 13.1735 15.5147 13.9058 15.3567 14.625ZM17.8085 11.5625C17.7546 10.804 17.5599 10.0622 17.2345 9.375H15.3567C15.509 10.0592 15.6035 10.7951 15.6297 11.5625H17.8085ZM14.5605 7.15337C14.7766 7.55937 14.9647 8.01087 15.1205 8.5H16.7261C16.0559 7.53632 15.1228 6.78553 14.0381 6.337C14.2288 6.5855 14.4038 6.86025 14.5605 7.15337ZM14.1973 8.5C14.0838 8.17895 13.9469 7.86662 13.7878 7.5655C13.3048 6.65987 12.723 6.12175 12.1367 5.94237V8.5H14.1973Z" fill="#173C19"/>
</svg>
