<svg width="31" height="31" viewBox="0 0 31 31" fill="none" xmlns="http://www.w3.org/2000/svg">
<g clip-path="url(#clip0_2634_323)">
<path d="M9.64857 1.9375C9.50337 1.93771 9.36008 1.97055 9.22929 2.0336C9.0985 2.09665 8.98355 2.18829 8.89295 2.30175L2.98357 9.6875H11.6248C11.8817 9.6875 12.1282 9.78957 12.3098 9.97124C12.4915 10.1529 12.5936 10.3993 12.5936 10.6562C12.5936 11.427 12.8998 12.1663 13.4448 12.7113C13.9898 13.2563 14.729 13.5625 15.4998 13.5625C16.2706 13.5625 17.0098 13.2563 17.5548 12.7113C18.0999 12.1663 18.4061 11.427 18.4061 10.6562C18.4061 10.3993 18.5081 10.1529 18.6898 9.97124C18.8715 9.78957 19.1179 9.6875 19.3748 9.6875H28.0161L22.1067 2.30175C22.0161 2.18829 21.9011 2.09665 21.7704 2.0336C21.6396 1.97055 21.4963 1.93771 21.3511 1.9375H9.64857ZM28.9344 11.625H20.2467C20.0244 12.72 19.4303 13.7044 18.5652 14.4115C17.7001 15.1186 16.6171 15.5049 15.4998 15.5049C14.3825 15.5049 13.2996 15.1186 12.4344 14.4115C11.5693 13.7044 10.9753 12.72 10.7529 11.625H2.0652L2.6852 16.5889C2.71455 16.8238 2.82891 17.0398 3.00668 17.1962C3.18445 17.3525 3.41333 17.4384 3.65007 17.4375H27.3534C27.5895 17.4374 27.8174 17.3512 27.9944 17.1949C28.1714 17.0386 28.2852 16.8231 28.3144 16.5889L28.9344 11.625ZM7.37976 1.09081C7.65217 0.750277 7.99772 0.47541 8.3908 0.286582C8.78388 0.0977547 9.21442 -0.000192354 9.65051 2.83601e-07H21.3491C21.7852 -0.000192354 22.2158 0.0977547 22.6088 0.286582C23.0019 0.47541 23.3475 0.750277 23.6199 1.09081L30.7886 10.0518C30.8692 10.1529 30.9287 10.269 30.9636 10.3935C30.9985 10.5179 31.0082 10.6481 30.9921 10.7764L30.2364 16.8291C30.1486 17.5322 29.8069 18.179 29.2756 18.6478C28.7443 19.1167 28.0601 19.3753 27.3515 19.375H3.64813C2.93957 19.3753 2.25531 19.1167 1.72403 18.6478C1.19275 18.179 0.851058 17.5322 0.763195 16.8291L0.00757049 10.7764C-0.00830975 10.648 0.0016813 10.5177 0.0369543 10.3933C0.0722272 10.2688 0.132068 10.1527 0.212945 10.0518L7.37976 1.09081ZM0.242008 21.6419C0.33279 21.5385 0.444536 21.4557 0.569812 21.3989C0.695088 21.3421 0.831022 21.3127 0.96857 21.3125H11.6248C11.8817 21.3125 12.1282 21.4146 12.3098 21.5962C12.4915 21.7779 12.5936 22.0243 12.5936 22.2812C12.5936 23.052 12.8998 23.7913 13.4448 24.3363C13.9898 24.8813 14.729 25.1875 15.4998 25.1875C16.2706 25.1875 17.0098 24.8813 17.5548 24.3363C18.0999 23.7913 18.4061 23.052 18.4061 22.2812C18.4061 22.0243 18.5081 21.7779 18.6898 21.5962C18.8715 21.4146 19.1179 21.3125 19.3748 21.3125H30.0311C30.1684 21.3125 30.3042 21.3418 30.4293 21.3983C30.5545 21.4548 30.6662 21.5372 30.7571 21.6402C30.848 21.7432 30.9159 21.8643 30.9565 21.9955C30.997 22.1268 31.0091 22.2651 30.9921 22.4014L30.2364 28.4541C30.1486 29.1572 29.8069 29.804 29.2756 30.2728C28.7443 30.7417 28.0601 31.0003 27.3515 31H3.64813C2.93957 31.0003 2.25531 30.7417 1.72403 30.2728C1.19275 29.804 0.851058 29.1572 0.763195 28.4541L0.00757049 22.4014C-0.00956809 22.2651 0.0024714 22.1267 0.0428901 21.9954C0.0833088 21.8642 0.151183 21.743 0.242008 21.6399V21.6419ZM2.0652 23.25L2.6852 28.2139C2.71451 28.4485 2.82859 28.6642 3.00596 28.8205C3.18332 28.9769 3.41172 29.0629 3.64813 29.0625H27.3515C27.5876 29.0624 27.8155 28.9762 27.9925 28.8199C28.1694 28.6636 28.2832 28.4481 28.3125 28.2139L28.9325 23.25H20.2467C20.0244 24.345 19.4303 25.3294 18.5652 26.0365C17.7001 26.7436 16.6171 27.1299 15.4998 27.1299C14.3825 27.1299 13.2996 26.7436 12.4344 26.0365C11.5693 25.3294 10.9753 24.345 10.7529 23.25H2.0652Z" fill="#FF8C42"/>
</g>
<defs>
<clipPath id="clip0_2634_323">
<rect width="31" height="31" fill="white"/>
</clipPath>
</defs>
</svg>
