<svg width="22" height="22" viewBox="0 0 22 22" fill="none" xmlns="http://www.w3.org/2000/svg">
<path d="M0 2.75C0 2.02065 0.289731 1.32118 0.805456 0.805456C1.32118 0.289731 2.02065 0 2.75 0L19.25 0C19.9793 0 20.6788 0.289731 21.1945 0.805456C21.7103 1.32118 22 2.02065 22 2.75V19.25C22 19.9793 21.7103 20.6788 21.1945 21.1945C20.6788 21.7103 19.9793 22 19.25 22H2.75C2.02065 22 1.32118 21.7103 0.805456 21.1945C0.289731 20.6788 0 19.9793 0 19.25V2.75ZM12.2788 9.0585L9.13 9.45312L9.01725 9.97563L9.636 10.0897C10.0402 10.186 10.12 10.3317 10.032 10.7346L9.01725 15.5031C8.7505 16.7365 9.16162 17.3167 10.1283 17.3167C10.8776 17.3167 11.748 16.9703 12.1426 16.4945L12.2636 15.9225C11.9886 16.1645 11.5871 16.2607 11.3204 16.2607C10.9422 16.2607 10.8047 15.9954 10.9024 15.5279L12.2788 9.0585ZM11 7.5625C11.3647 7.5625 11.7144 7.41763 11.9723 7.15977C12.2301 6.90191 12.375 6.55217 12.375 6.1875C12.375 5.82283 12.2301 5.47309 11.9723 5.21523C11.7144 4.95737 11.3647 4.8125 11 4.8125C10.6353 4.8125 10.2856 4.95737 10.0277 5.21523C9.76987 5.47309 9.625 5.82283 9.625 6.1875C9.625 6.55217 9.76987 6.90191 10.0277 7.15977C10.2856 7.41763 10.6353 7.5625 11 7.5625Z" fill="#B8D2F6"/>
</svg>
